<svg xmlns="http://www.w3.org/2000/svg" xmlns:xlink="http://www.w3.org/1999/xlink" viewBox="0 0 758.26 1205.39"><defs><style>.cls-1{fill:url(#linear-gradient);}</style><linearGradient id="linear-gradient" x1="740.72" y1="492.28" x2="-29.7" y2="671.32" gradientUnits="userSpaceOnUse"><stop offset="0.05" stop-color="#fff"/><stop offset="0.15" stop-color="#fcfdf9"/><stop offset="0.28" stop-color="#f3f8e8"/><stop offset="0.43" stop-color="#e4efcd"/><stop offset="0.6" stop-color="#cfe3a6"/><stop offset="0.77" stop-color="#b4d475"/><stop offset="0.95" stop-color="#95c23d"/></linearGradient></defs><g id="Layer_2" data-name="Layer 2"><g id="WIREFRAME"><path class="cls-1" d="M175.23,1124.44c22.81,34.11,58.47,58.65,97.43,71.58,57.35,19,128.11,10.14,166.57-36.48,22.61-27.41,31.31-64,32.66-99.47s-3.92-70.89-6-106.37c-1.22-21-1.05-43.08,9.1-61.47,7.39-13.38,19.44-23.55,32-32.32,44.11-30.89,96.6-48,141.28-78,53.82-36.17,95.34-92.51,106.91-156.31s-9.45-134.19-58.81-176.24c-45.51-38.77-103.88-9.3-144.61-49.89-10.92-10.88-22-22-28.91-35.8-18-36-3.42-80.9-17.83-118.46-11.31-29.48-38.65-49.65-66.44-64.61s-57.83-26.72-81.8-47.26a140,140,0,0,1-28.58-33.65c-9-14.81-15.19-31.23-24.73-45.7C270.52,4,198.79-13.26,143.85,10.61s-90.56,83-93,142.82C48.11,220.27,81.56,282.68,96.12,348c13.45,60.36,10.09,125.69-17.25,181.16C64.64,558,44.37,583.55,30.06,612.37,8.42,656,1.26,705.44.14,754.11c-.72,31,1,62.68,12.33,91.54S46,900.41,75.5,909.8c16,5.09,34.71,5.84,46.44,17.9,4.72,4.85,7.74,11.06,10.68,17.16,16.15,33.48,22,47.76,17.92,83.14C147.21,1056.66,153.62,1102.82,175.23,1124.44Z"/></g></g></svg>