<svg xmlns="http://www.w3.org/2000/svg" xmlns:xlink="http://www.w3.org/1999/xlink" width="322.969" height="231.179" viewBox="0 0 322.969 231.179">
  <defs>
    <linearGradient id="linear-gradient" x1="-1.271" y1="1.276" x2="-1.272" y2="-0.176" gradientUnits="objectBoundingBox">
      <stop offset="0" stop-color="#fff"/>
      <stop offset="0.178" stop-color="#e9f2d7"/>
      <stop offset="0.578" stop-color="#bcd885"/>
      <stop offset="0.862" stop-color="#9fc851"/>
      <stop offset="1" stop-color="#95c23d"/>
    </linearGradient>
    <linearGradient id="linear-gradient-2" x1="0.531" y1="0.195" x2="0.173" y2="1.149" gradientUnits="objectBoundingBox">
      <stop offset="0" stop-color="#fff"/>
      <stop offset="0.189" stop-color="#d8d8da"/>
      <stop offset="0.452" stop-color="#a8a8ae"/>
      <stop offset="0.685" stop-color="#85858d"/>
      <stop offset="0.875" stop-color="#70707a"/>
      <stop offset="1" stop-color="#696973"/>
    </linearGradient>
    <linearGradient id="linear-gradient-3" x1="0.05" y1="1.196" x2="1.847" y2="-0.835" xlink:href="#linear-gradient-2"/>
    <linearGradient id="linear-gradient-4" x1="-0.935" y1="0.696" x2="2.575" y2="0.217" xlink:href="#linear-gradient-2"/>
    <linearGradient id="linear-gradient-5" x1="-0.154" y1="1.739" x2="1.274" y2="-1.132" xlink:href="#linear-gradient-2"/>
    <linearGradient id="linear-gradient-6" x1="0.605" y1="0.815" x2="0.045" y2="-0.916" xlink:href="#linear-gradient-2"/>
    <linearGradient id="linear-gradient-7" x1="0.088" y1="1.523" x2="0.962" y2="-1.086" xlink:href="#linear-gradient-2"/>
    <linearGradient id="linear-gradient-8" x1="0.656" y1="0.827" x2="0.159" y2="-0.622" xlink:href="#linear-gradient-2"/>
    <linearGradient id="linear-gradient-9" x1="0.269" y1="0.856" x2="2.073" y2="-0.339" xlink:href="#linear-gradient-2"/>
    <linearGradient id="linear-gradient-10" x1="-0.351" y1="0.717" x2="2.517" y2="0.035" xlink:href="#linear-gradient-2"/>
    <linearGradient id="linear-gradient-11" x1="-20.283" y1="0.071" x2="22.169" y2="0.938" xlink:href="#linear-gradient-2"/>
    <linearGradient id="linear-gradient-12" x1="-0.182" y1="0.081" x2="0.916" y2="0.945" xlink:href="#linear-gradient-2"/>
    <linearGradient id="linear-gradient-13" x1="0.458" y1="1.164" x2="0.692" y2="-2.107" xlink:href="#linear-gradient-2"/>
    <linearGradient id="linear-gradient-14" x1="0.473" y1="0.517" x2="-1.185" y2="-0.088" xlink:href="#linear-gradient-2"/>
    <linearGradient id="linear-gradient-15" x1="-1.219" y1="0.823" x2="4.69" y2="-0.326" xlink:href="#linear-gradient-2"/>
    <linearGradient id="linear-gradient-16" x1="-0.542" y1="2" x2="2.184" y2="-2.011" xlink:href="#linear-gradient-2"/>
    <linearGradient id="linear-gradient-17" x1="-0.011" y1="1.329" x2="1.448" y2="-0.621" xlink:href="#linear-gradient-2"/>
    <linearGradient id="linear-gradient-18" x1="0.234" y1="0.912" x2="1.049" y2="-0.277" xlink:href="#linear-gradient-2"/>
    <linearGradient id="linear-gradient-19" x1="1.28" y1="1.699" x2="-0.428" y2="-1.563" gradientUnits="objectBoundingBox">
      <stop offset="0" stop-color="#fff"/>
      <stop offset="0.161" stop-color="#dddddf"/>
      <stop offset="0.431" stop-color="#ababb1"/>
      <stop offset="0.668" stop-color="#87878f"/>
      <stop offset="0.86" stop-color="#71717a"/>
      <stop offset="0.982" stop-color="#696973"/>
      <stop offset="1" stop-color="#696973"/>
    </linearGradient>
    <linearGradient id="linear-gradient-20" x1="0.29" y1="0.795" x2="0.981" y2="-0.228" xlink:href="#linear-gradient-2"/>
    <linearGradient id="linear-gradient-21" x1="-0.602" y1="0.56" x2="4.946" y2="0.266" xlink:href="#linear-gradient-2"/>
    <linearGradient id="linear-gradient-22" x1="0.19" y1="1.345" x2="1.376" y2="-0.878" xlink:href="#linear-gradient-2"/>
    <linearGradient id="linear-gradient-23" x1="-1.469" y1="0.161" x2="4.204" y2="1.327" xlink:href="#linear-gradient-2"/>
    <linearGradient id="linear-gradient-24" x1="-0.282" y1="0.062" x2="2.879" y2="1.591" xlink:href="#linear-gradient-2"/>
  </defs>
  <g id="Ilustracao-Inicitivas_que_transformam" data-name="Ilustracao-Inicitivas que transformam" transform="translate(-1566.69 -806.504)">
    <path id="Caminho_114273" data-name="Caminho 114273" d="M1854.141,1033.936q-103.714-.211-207.431-.423-17.277-.028-34.554-.039c1.3-.9,1.9-2.6,2.259-4.211,3.073-13.676-4.593-27.528-13.753-37.619s-20.278-18.486-26.974-30.589c-7.342-13.271-8.447-29.739-5.441-44.823,3.974-19.93,14.139-42.056,28.892-55.388,20.451-18.482,47.729-14.4,67.238,3.251,11.106,10.047,20.385,22.1,29.044,34.535,6.517,9.357,13.923,25.137,27.315,22.127,5.62-1.263,10.368-5.172,14.72-9.18,3.94-3.63,7.815-7.543,10.2-12.486,5.573-11.56-1.984-24.675-8.509-33.847-6.68-9.389-14.958-17.456-20.963-27.354-2.373-3.911-4.406-8.878-2.53-13.087a12.148,12.148,0,0,1,4.564-4.88c20.027-13.537,47.41-14.97,70.479-12.323,18.04,2.07,36.207,9.422,48.27,23.914,11.231,13.491,16.232,34.2,9.2,51.162-7.121,17.187-24.895,23.886-35.422,38-1.388,1.86-2.695,4.256-1.943,6.494.816,2.431,3.569,3.3,5.958,3.688,15.185,2.459,30.477-3.366,45.687-1.617,6.66.766,13.348,3.239,18.184,8.2,4.047,4.147,6.543,9.748,8.221,15.468C1896.486,985.74,1880.267,1016.831,1854.141,1033.936Z" fill="url(#linear-gradient)"/>
    <g id="Grupo_6836" data-name="Grupo 6836">
      <g id="Grupo_6835" data-name="Grupo 6835">
        <g id="Grupo_6833" data-name="Grupo 6833">
          <g id="Grupo_6830" data-name="Grupo 6830">
            <path id="Caminho_114274" data-name="Caminho 114274" d="M1764.333,1028.52h-17.261s-9.962-104.673-4.012-145.692c6.212-42.827,13.515-54.429,13.515-54.429S1778.463,986.278,1764.333,1028.52Z" fill="#2c6020"/>
            <path id="Caminho_114275" data-name="Caminho 114275" d="M1755.124,838.65c-.7,15.832-1.133,31.675-1.412,47.519s-.353,31.69-.18,47.527.6,31.669,1.471,47.455q.633,11.841,1.728,23.621c.737,7.847,1.716,16.019,2.954,23.748h-3.639c-1.111-7.9-1.867-15.477-2.46-23.406s-1.014-15.865-1.287-23.8c-.574-15.873-.694-31.747-.572-47.611s.512-31.719,1.083-47.562S1754.127,854.462,1755.124,838.65Z" fill="#fff"/>
          </g>
          <g id="Grupo_6831" data-name="Grupo 6831">
            <path id="Caminho_114276" data-name="Caminho 114276" d="M1814.494,1028.868h-17.261s-9.962-46.628-4.012-64.84c6.212-19.015,13.515-24.166,13.515-24.166S1828.624,1010.113,1814.494,1028.868Z" fill="#2c6020"/>
            <path id="Caminho_114277" data-name="Caminho 114277" d="M1805.285,944.414c-.7,7.028-1.133,14.063-1.412,21.1s-.353,14.07-.18,21.1.6,14.06,1.471,21.069q.633,5.258,1.728,10.488a82.292,82.292,0,0,0,2.873,10.7h-3.558a77.124,77.124,0,0,1-2.46-10.546q-.876-5.281-1.287-10.569c-.574-7.047-.694-14.095-.572-21.139s.512-14.082,1.083-21.116S1804.288,951.434,1805.285,944.414Z" fill="#fff"/>
          </g>
          <g id="Grupo_6832" data-name="Grupo 6832">
            <path id="Caminho_114278" data-name="Caminho 114278" d="M1784.986,1028.52H1760.71s-7.583-58.09,1.839-91.993c15.175-54.6,54.29-54.6,54.29-54.6S1780.052,927.118,1784.986,1028.52Z" fill="#2c6020"/>
            <path id="Caminho_114279" data-name="Caminho 114279" d="M1784.986,1028.52H1760.71s-7.583-58.09,1.839-91.993c15.175-54.6,54.29-54.6,54.29-54.6S1780.052,927.118,1784.986,1028.52Z" fill="url(#linear-gradient-2)" style="mix-blend-mode: multiply;isolation: isolate"/>
            <path id="Caminho_114280" data-name="Caminho 114280" d="M1804.836,888.409a55.194,55.194,0,0,0-6.219,6.37q-2.9,3.435-5.486,7.182a120.675,120.675,0,0,0-9.171,15.871,149.934,149.934,0,0,0-7.008,17.216c-1.027,2.939-1.892,5.947-2.776,8.943l-1.191,4.545-.3,1.135-.262,1.148-.521,2.3-.521,2.295c-.183.762-.307,1.541-.463,2.311l-.893,4.629-.748,4.662-.372,2.331-.3,2.345-.594,4.689c-.17,1.567-.3,3.141-.456,4.71-.339,3.134-.494,6.291-.7,9.439a301.815,301.815,0,0,0,.435,37.995h-3.665a301.751,301.751,0,0,1,.53-38.228c.283-3.185.516-6.373.935-9.539.192-1.585.364-3.172.574-4.754l.714-4.73.36-2.363.431-2.349.869-4.694,1.015-4.657c.176-.774.321-1.557.524-2.323l.582-2.3.582-2.3.292-1.152.328-1.139,1.313-4.557c.965-3,1.911-6.012,3.018-8.95a150.207,150.207,0,0,1,7.481-17.15,120.158,120.158,0,0,1,9.6-15.686q2.679-3.685,5.677-7.041A54.644,54.644,0,0,1,1804.836,888.409Z" fill="#fff"/>
          </g>
        </g>
        <g id="Grupo_6834" data-name="Grupo 6834">
          <path id="Caminho_114281" data-name="Caminho 114281" d="M1688.841,1028.868h-25.958s0-51.152-12.216-64.9-41.227-22.14-41.227-22.14,34.712-12.272,57.787,8.427C1683.548,964.9,1691.9,1011.308,1688.841,1028.868Z" fill="#2c6020"/>
          <path id="Caminho_114282" data-name="Caminho 114282" d="M1676.593,1028.868h15.855s9.472-75.46,2.808-107.031c-9.437-44.71-28.922-44.71-28.922-44.71S1672.463,961.343,1676.593,1028.868Z" fill="#2c6020"/>
          <path id="Caminho_114283" data-name="Caminho 114283" d="M1641.095,938.752s-31.725,6.418-37.663,16.6-5.6,15.779-5.6,15.779-6.617-22.735-3.563-28.5S1630.447,936.286,1641.095,938.752Z" fill="#95c23d"/>
        </g>
      </g>
    </g>
    <ellipse id="Elipse_1180" data-name="Elipse 1180" cx="136.75" cy="2.954" rx="136.75" ry="2.954" transform="translate(1598.749 1027.268)" fill="#9dbcac"/>
    <g id="Grupo_6918" data-name="Grupo 6918">
      <g id="Grupo_6854" data-name="Grupo 6854">
        <g id="Grupo_6853" data-name="Grupo 6853">
          <path id="Caminho_114284" data-name="Caminho 114284" d="M1729.975,903.968s13.679,8.781,15.07,8.855c5.514.291,20.142-7.134,24.005-3.416s-10.359,16.562-22.613,16.514c-6.821-.027-16.152-5.065-17.711-7.044S1729.975,903.968,1729.975,903.968Z" fill="#214a6e"/>
          <path id="Caminho_114285" data-name="Caminho 114285" d="M1771.111,909.377c-2.287-3.442-1.717-10.468-4.776-12.817-1.511-1.16-3.585-.22-3.585-.22-1.5-1.117-3.094.679-3.777,3.445a3.356,3.356,0,0,0-.07.412l-.022.028s-3.28,12.924,1.183,21.544,16.707,6.655,17.393,2.031S1773.4,912.819,1771.111,909.377Z" fill="#1e1240"/>
          <path id="Caminho_114286" data-name="Caminho 114286" d="M1789.763,902.555s-10.27,11.432-13.528,13.179-15.276,4.737-13.277,8.873c1.378,2.854,3.927,6.775,11.356,5.709,3.342-.48,12.255-4.581,14.536-5.709C1796.2,920.973,1789.763,902.555,1789.763,902.555Z" fill="#ac614e"/>
          <path id="Caminho_114287" data-name="Caminho 114287" d="M1713.534,927.391c-1.754-3.144-20.355,2.588-20.355,2.588a12.187,12.187,0,0,0-1.315,3.786,10.32,10.32,0,0,0,0,5.23C1700.826,940.283,1715.155,930.294,1713.534,927.391Z" fill="#ac614e"/>
          <path id="Caminho_114288" data-name="Caminho 114288" d="M1759.512,907.832c-2.465-1.832-12.18,13.043-13.869,15.559s-23.476,5.31-22.724,9.764,21.763.7,26.484-2.794C1752.875,927.791,1764.386,911.454,1759.512,907.832Z" fill="#a8655d"/>
          <path id="Caminho_114289" data-name="Caminho 114289" d="M1749.248,925.048c-2.142,3.027-10.321,6.461-16.48,7.393-2.775.419-6.392.8-9.666,1.2,2.2,3.671,21.766.075,26.3-3.28,2.441-1.807,8.854-10.416,10.755-16.63C1756.651,917.124,1750.731,922.953,1749.248,925.048Z" fill="url(#linear-gradient-3)" style="mix-blend-mode: multiply;isolation: isolate"/>
          <g id="Grupo_6837" data-name="Grupo 6837">
            <path id="Caminho_114290" data-name="Caminho 114290" d="M1789.763,902.555s-7.99,8.894-12.111,12.19a31.23,31.23,0,0,0,4.115,13.049c3.008-1.252,5.915-2.609,7.083-3.187C1796.2,920.973,1789.763,902.555,1789.763,902.555Z" fill="#f4ac46"/>
          </g>
          <path id="Caminho_114291" data-name="Caminho 114291" d="M1676.289,904.513s-.211-1.819-2.508-1.63-2.479,2.911-2.047,4.031,1.016,4.235.111,4.963-3.69,4.468-1,6.156,5.444,1.854,6.558-.713S1676.289,904.513,1676.289,904.513Z" fill="#1e1240"/>
          <path id="Caminho_114292" data-name="Caminho 114292" d="M1678.278,904.033c.733.078,1.353.276,2.375,1.819s.521,4.759-1,5.661-4.087.479-4.79-.48C1674.045,909.912,1672.765,903.445,1678.278,904.033Z" fill="#1e1240"/>
          <path id="Caminho_114293" data-name="Caminho 114293" d="M1731.333,940.58l-12.125,2.778c-4.879-2.526-16.438-4.191-18.169-1.1a25.514,25.514,0,0,0-3.045,13.361l1.646,25.846,4.713,42a1.909,1.909,0,0,0,1.864,1.734h1.533a1.9,1.9,0,0,0,1.85-1.632c1.5-9.241,8.905-54.718,9.506-58.432,5.3,28.219,15.321,58.9,16.437,59.741,1.633,1.228,2.274,1.155,4.066-.32C1741.625,1022.893,1733.883,940.274,1731.333,940.58Z" fill="#f4ac46"/>
          <g id="Grupo_6838" data-name="Grupo 6838">
            <path id="Caminho_114294" data-name="Caminho 114294" d="M1731.333,940.58l-12.125,2.778c-4.879-2.526-16.438-4.191-18.169-1.1a25.514,25.514,0,0,0-3.045,13.361l1.646,25.846.721,6.422a134.854,134.854,0,0,0,14.974.441c1.861-11.442,3.5-21.524,3.771-23.191,1.422,7.574,3.185,15.326,5.024,22.631a83.105,83.105,0,0,0,13.384-2.428C1735.474,963.381,1732.679,940.418,1731.333,940.58Z" fill="#f4ac46"/>
          </g>
          <path id="Caminho_114295" data-name="Caminho 114295" d="M1737.514,985.335h0l-.017-.191-.029-.31c-.026-.279-.053-.558-.079-.837l-.034-.361c-.027-.282-.053-.565-.08-.847l-.025-.257c-.03-.317-.06-.633-.091-.95l-.022-.229q-.111-1.155-.225-2.308l-.021-.207q-.047-.479-.095-.955l-.024-.246q-.045-.445-.09-.89l-.031-.313q-.045-.434-.088-.867l-.027-.258-.1-1.022-.01-.1q-.122-1.167-.243-2.322l-.009-.09q-.054-.5-.107-1l-.027-.255c-.031-.293-.063-.585-.094-.876l-.027-.243q-.051-.471-.1-.939l-.016-.146c-1.686-15.375-3.469-27.858-4.463-27.738l-4.909,1.124a10.288,10.288,0,0,0-.427,2.9c0,9.78,3.051,23.169,3.363,33.764.08,2.728.148,5.271.22,7.552a6.5,6.5,0,0,0,.037,1.113c.559,4.183,3.462,26.928,7.151,38.572.877.329,1.57-.009,2.841-1.055C1740.56,1023.769,1739.338,1004.955,1737.514,985.335Z" fill="url(#linear-gradient-4)" style="mix-blend-mode: multiply;isolation: isolate"/>
          <g id="Grupo_6839" data-name="Grupo 6839">
            <path id="Caminho_114296" data-name="Caminho 114296" d="M1701.126,903.664c1.741-3,9-6.111,15.824-5.11s11.807,3.952,13.31,5.722c3.092,3.641,5.531,23.078,4.619,29.464-1.488,10.413-1.552,13.451-11.991,14.8-8.871,1.149-22.835,4.9-24.688.227C1693.883,937.887,1693.223,917.266,1701.126,903.664Z" fill="#214a6e"/>
          </g>
          <path id="Caminho_114297" data-name="Caminho 114297" d="M1732.981,911.869c-17.649-4.923-29.924-1.377-35.777,1.252a60.846,60.846,0,0,0-2.162,16.273c4.686-1.388,14.041-3.974,20.921-4.684,6.431-.664,14.51,2.371,19.1,4.421A99.279,99.279,0,0,0,1732.981,911.869Z" fill="#f4ac46"/>
          <path id="Caminho_114298" data-name="Caminho 114298" d="M1711.5,892.351a3.442,3.442,0,0,1,.614-2.1c.748-1.25,4.206-1.591,5.328,1.665.585,1.7-.65,4.135-.65,4.135S1711.875,894.391,1711.5,892.351Z" fill="#311e69"/>
          <path id="Caminho_114299" data-name="Caminho 114299" d="M1714.426,892.015a17.279,17.279,0,0,1,3.167,1.117,8.237,8.237,0,0,1-.8,2.922,19.333,19.333,0,0,1-1.908-.788C1714.654,894.268,1714.186,892.1,1714.426,892.015Z" fill="#311e69"/>
          <path id="Caminho_114300" data-name="Caminho 114300" d="M1713.493,894.6l-.1,5.4c.072.822,2.51,2.026,4.01,1.456.613-.233,1.456-1.135,1.032-1.951l-2.549-5.137Z" fill="#f5c5bb"/>
          <path id="Caminho_114301" data-name="Caminho 114301" d="M1713.441,897.449l-.025,1.418c.914-.064,2.384-.665,2.666-1.285a3.528,3.528,0,0,0,.272-1.463Z" fill="url(#linear-gradient-5)" style="mix-blend-mode: multiply;isolation: isolate"/>
          <path id="Caminho_114302" data-name="Caminho 114302" d="M1715,892.234l1.259,3.172a2.117,2.117,0,0,1-1.232,2.622,5.317,5.317,0,0,1-2.436.3c-.9-.041-1.42-.9-1.51-2.116a11.9,11.9,0,0,1,.421-3.86C1711.99,890.555,1714.03,890.23,1715,892.234Z" fill="#f5c5bb"/>
          <path id="Caminho_114303" data-name="Caminho 114303" d="M1703.166,901.6l-23.588,16.3s-17.545,7.424-14.375,12.077c1.9,2.787,12.095,3.11,22.532-2.021,6.988-3.435,16.261-9.779,18.155-13.2C1709.074,909,1703.166,901.6,1703.166,901.6Z" fill="#214a6e"/>
          <path id="Caminho_114304" data-name="Caminho 114304" d="M1713.306,894.755a5.157,5.157,0,0,1-1.772.2s.024.711.453.924S1713.123,895.621,1713.306,894.755Z" fill="#fff"/>
          <g id="Grupo_6840" data-name="Grupo 6840">
            <path id="Caminho_114305" data-name="Caminho 114305" d="M1712.222,897.14c.98-.289,1.852,1.226,3.512-.41a2.752,2.752,0,0,0,.494-1.394l.027.07a2.117,2.117,0,0,1-1.232,2.622,5.317,5.317,0,0,1-2.436.3,1.4,1.4,0,0,1-1.21-.883A4.711,4.711,0,0,0,1712.222,897.14Z" fill="#894b46"/>
          </g>
          <path id="Caminho_114306" data-name="Caminho 114306" d="M1715.009,893.556a3.209,3.209,0,0,0,.009-.635c-.03-.4.016-1.01.61-.761.864.362,1.019,2.321.078,2.56C1715.006,894.9,1714.94,894.088,1715.009,893.556Z" fill="#f5c5bb"/>
          <path id="Caminho_114307" data-name="Caminho 114307" d="M1709.561,1024.4c-.7-.089-2.039.334-2.552.112s-1.329-1.215-2.188-.975-2.579,2.577-3.224,3.111-2.288.994-2.57,2.093h0a1.032,1.032,0,0,0,1.018,1.048l8.774-.075a1.585,1.585,0,0,0,1.529-1.422C1710.457,1027.423,1710.258,1024.487,1709.561,1024.4Z" fill="#1e1240"/>
          <path id="Caminho_114308" data-name="Caminho 114308" d="M1735.432,1024.4c.7-.089,2.039.334,2.552.112s1.329-1.215,2.188-.975,2.579,2.577,3.224,3.111,2.288.994,2.57,2.093h0a1.033,1.033,0,0,1-1.019,1.048l-8.773-.075a1.584,1.584,0,0,1-1.529-1.422C1734.536,1027.423,1734.735,1024.487,1735.432,1024.4Z" fill="#1e1240"/>
          <g id="Grupo_6842" data-name="Grupo 6842">
            <path id="Caminho_114309" data-name="Caminho 114309" d="M1797.974,1021.231s.545,4.476-.068,5.69a2.092,2.092,0,0,0,1.662.746,21.808,21.808,0,0,0,4.425-.552,38.278,38.278,0,0,1-.618-5.918Z" fill="#ac614e"/>
            <g id="Grupo_6841" data-name="Grupo 6841">
              <path id="Caminho_114310" data-name="Caminho 114310" d="M1799.224,1030.711a49.4,49.4,0,0,1-7.844-.2,3.14,3.14,0,0,0-.073.615c-.02,1.1,10.677,1.276,12.5.253a1.774,1.774,0,0,0,.754-1.556A32.477,32.477,0,0,1,1799.224,1030.711Z" fill="#fff"/>
              <path id="Caminho_114311" data-name="Caminho 114311" d="M1799.224,1030.711a32.477,32.477,0,0,0,5.333-.883,5.507,5.507,0,0,0-.4-2.169,4.906,4.906,0,0,1-.167-.544,21.808,21.808,0,0,1-4.425.552,2.092,2.092,0,0,1-1.662-.746c-.014.027-.028.055-.043.079a5.472,5.472,0,0,1-2.316,1.3c-1.689.864-3.768.367-4.167,2.215A49.4,49.4,0,0,0,1799.224,1030.711Z" fill="#1e1240"/>
            </g>
          </g>
          <g id="Grupo_6844" data-name="Grupo 6844">
            <path id="Caminho_114312" data-name="Caminho 114312" d="M1829.332,1021.231a38.79,38.79,0,0,0,1.475,5.69,2.092,2.092,0,0,1-1.662.746,21.792,21.792,0,0,1-4.424-.552c.454-1.762-.857-4.92-.789-5.918Z" fill="#ac614e"/>
            <g id="Grupo_6843" data-name="Grupo 6843">
              <path id="Caminho_114313" data-name="Caminho 114313" d="M1829.489,1030.711a49.4,49.4,0,0,0,7.844-.2,3.067,3.067,0,0,1,.073.615c.02,1.1-10.677,1.276-12.5.253a1.776,1.776,0,0,1-.754-1.556A32.495,32.495,0,0,0,1829.489,1030.711Z" fill="#fff"/>
              <path id="Caminho_114314" data-name="Caminho 114314" d="M1829.489,1030.711a32.495,32.495,0,0,1-5.333-.883,5.507,5.507,0,0,1,.4-2.169,4.924,4.924,0,0,0,.168-.544,21.792,21.792,0,0,0,4.424.552,2.092,2.092,0,0,0,1.662-.746c.014.027.028.055.043.079a5.472,5.472,0,0,0,2.316,1.3c1.689.864,3.768.367,4.167,2.215A49.4,49.4,0,0,1,1829.489,1030.711Z" fill="#1e1240"/>
            </g>
          </g>
          <g id="Grupo_6845" data-name="Grupo 6845">
            <path id="Caminho_114315" data-name="Caminho 114315" d="M1735.915,1021.7s-.829,4.795-.981,5.1c-.061.122-1.465.571-2.574,1.139-.5.439-.987,1.006-.46,1.2.9.324,6.241.43,6.758-.484a2.42,2.42,0,0,1,.63-.732c.261-2.384,1.616-4.376,1.89-5.562Z" fill="#a8655d"/>
            <path id="Caminho_114316" data-name="Caminho 114316" d="M1738.658,1028.645c-.517.914-5.854.808-6.758.484-.527-.189-.038-.756.46-1.2-1.664.853-3.718,1.955-3.8,2.542-.135.979,9.575,1.134,11.2.215.853-.481.281-1.56-.478-2.778A2.42,2.42,0,0,0,1738.658,1028.645Z" fill="#214a6e"/>
          </g>
          <g id="Grupo_6846" data-name="Grupo 6846">
            <path id="Caminho_114317" data-name="Caminho 114317" d="M1778.057,983.082c-1.836-.64,1.034-28.613,1.065-31.076.1-8.035-34.431.719-35.632,9.731-2.874,21.554-5.3,37.871-8.372,64.706-.108.946,3.906.36,4.192-.179,5.56-10.488,16.3-25.808,13.448-37.9-.937-3.966,6.583-27.622,7.314-27.186,2.541,1.516,6.86,44.554,21.6,65.767h4.01S1789.1,986.935,1778.057,983.082Z" fill="#a8655d"/>
          </g>
          <path id="Caminho_114318" data-name="Caminho 114318" d="M1756.351,970.57c-2.757-.7-9.159,3.93-9.717,10.042s-6.567,34.142-6.737,38.857c-.072,1.976-.014,3.943.077,5.563,5.7-10.43,15.53-25.041,12.784-36.669-.53-2.245,1.649-10.8,3.773-17.721A.855.855,0,0,0,1756.351,970.57Z" fill="url(#linear-gradient-6)" style="mix-blend-mode: multiply;isolation: isolate"/>
          <path id="Caminho_114319" data-name="Caminho 114319" d="M1779.122,952.006c.1-8.035-6.25-21.085-6.7-22.534-.557-1.8,1.6-12.453.111-18.628-1.231-5.1-14.811-6.764-16.866.066-.178.593-3.069,4.293-3.2,5.845-.456,5.432,4.345,4.762,1.306,15.262-1,3.466-10.807,19.809-21.008,44.025,1.678,2.163,19.16,9.274,33.753,7.551,4.572-.54,6.876-3.105,10.925-4.6C1777.384,970.992,1779.1,953.906,1779.122,952.006Z" fill="#214a6e"/>
          <path id="Caminho_114320" data-name="Caminho 114320" d="M1764.48,902.543l.369,4.383c.057.722-1.51,2.711-2.667,1.883-.338-.242.01-1.268.257-2.041l.55-3.834Z" fill="#a8655d"/>
          <path id="Caminho_114321" data-name="Caminho 114321" d="M1764.166,903.74l-1.338.314-.155,1.08C1763.067,905,1764.035,904.6,1764.166,903.74Z" fill="url(#linear-gradient-7)" style="mix-blend-mode: multiply;isolation: isolate"/>
          <path id="Caminho_114322" data-name="Caminho 114322" d="M1764.223,899.913l.373,1.664a2.54,2.54,0,0,1-1.681,3.044,2.079,2.079,0,0,1-2.631-1.846,5.447,5.447,0,0,1,.892-3.282C1761.846,898.01,1763.659,898.032,1764.223,899.913Z" fill="#a8655d"/>
          <path id="Caminho_114323" data-name="Caminho 114323" d="M1785.935,1023c-1.124-3.642-2.307-14.1-3.468-18.9-1.921-7.946-7.891-9.733-8.884-19.211a26.982,26.982,0,0,1-.043-3.993,26.387,26.387,0,0,1,3.907-1.906c.016,2.366.195,3.948.613,4.09C1786.966,986.19,1786.461,1012.815,1785.935,1023Z" fill="url(#linear-gradient-8)" style="mix-blend-mode: multiply;isolation: isolate"/>
          <path id="Caminho_114324" data-name="Caminho 114324" d="M1764.294,901.534a2.248,2.248,0,0,0,.076-.441c.024-.285.122-.7.508-.457.563.355.357,1.864-.326,1.918C1764.046,902.594,1764.187,901.9,1764.294,901.534Z" fill="#a8655d"/>
          <path id="Caminho_114325" data-name="Caminho 114325" d="M1760.871,901.283a2.226,2.226,0,0,1-.042-.447c0-.285-.068-.709-.472-.5-.587.308-.5,1.829.179,1.94C1761.038,902.36,1760.95,901.653,1760.871,901.283Z" fill="#a8655d"/>
          <path id="Caminho_114326" data-name="Caminho 114326" d="M1761.213,902.166a5.951,5.951,0,0,0,1.745.114,1.258,1.258,0,0,1-1.091.579C1761.071,902.792,1761.213,902.166,1761.213,902.166Z" fill="#e6f2f5"/>
          <path id="Caminho_114327" data-name="Caminho 114327" d="M1819.484,946.066a12.821,12.821,0,0,0-1.314-3.647c-2.426-3.023-13.735-.216-18.272,3.9l-11.8.209s-2.942,17.55-2.236,30.8c.521,9.846,3.717,31.3,6.648,41.82v.011c1.015,3.63,1.992,5.956,2.811,6.046,3.207.358,7.538.341,9.763-2.013,1.064-1.129-4.7-35.3-5.107-41.712a114.913,114.913,0,0,1,1.845-19.841.019.019,0,0,0,.006-.012c2.2,7.408,17.464,61.7,17.464,61.7a47.675,47.675,0,0,0,4.927.539c.727.045,1.487.068,2.252.068,4.336-.011,5.845-.9,5.845-.9S1823.733,962.1,1819.484,946.066Z" fill="#214a6e"/>
          <path id="Caminho_114328" data-name="Caminho 114328" d="M1805.086,1023.189c-2.225,2.354-6.556,2.371-9.763,2.013-.819-.09-1.8-2.416-2.811-6.046v-.011c.168-10.556.515-25.366,1.161-30.777,1.031-8.633,7.934-26.182,8.151-26.732a114.913,114.913,0,0,0-1.845,19.841C1800.386,987.886,1806.15,1022.06,1805.086,1023.189Z" fill="url(#linear-gradient-9)" style="mix-blend-mode: multiply;isolation: isolate"/>
          <path id="Caminho_114329" data-name="Caminho 114329" d="M1832.318,1023.036s-1.509.885-5.845.9c-.765,0-1.525-.023-2.252-.068,2.914-12.91-9.622-66.193-11.917-74.667l7.18-3.131C1823.733,962.1,1832.318,1023.036,1832.318,1023.036Z" fill="url(#linear-gradient-10)" style="mix-blend-mode: multiply;isolation: isolate"/>
          <g id="Grupo_6847" data-name="Grupo 6847">
            <path id="Caminho_114330" data-name="Caminho 114330" d="M1781.819,1022.586a37.021,37.021,0,0,1,.1,4.209c-.06.122-1.465.571-2.574,1.139-.5.439-.987,1.006-.46,1.2.9.324,6.241.43,6.758-.484a2.42,2.42,0,0,1,.63-.732c-.692-1.111-.974-4.265-1.043-5.261Z" fill="#a8655d"/>
            <path id="Caminho_114331" data-name="Caminho 114331" d="M1785.643,1028.645c-.517.914-5.854.808-6.758.484-.527-.189-.038-.756.46-1.2-1.663.853-3.718,1.955-3.8,2.542-.135.979,9.575,1.134,11.2.215.853-.481.281-1.56-.478-2.778A2.42,2.42,0,0,0,1785.643,1028.645Z" fill="#214a6e"/>
          </g>
          <path id="Caminho_114332" data-name="Caminho 114332" d="M1777.452,977.744c-.005.437-.011.851-.005,1.248C1777.441,978.595,1777.441,978.181,1777.452,977.744Z" fill="url(#linear-gradient-11)" style="mix-blend-mode: multiply;isolation: isolate"/>
          <path id="Caminho_114333" data-name="Caminho 114333" d="M1772.422,929.47c-.554-1.8,1.606-12.451.114-18.627-.418-1.73-2.258-3.063-4.586-3.806-.364,2.1-1,5.711-1.487,8.349-.722,3.925-3.983,4.628-6.74,4.713s-2.877,2.133.944,3.642,5.66,4.566,6.328,8.582-5.433,34.23-6.936,43.136a56.081,56.081,0,0,0-.857,8.326,42.467,42.467,0,0,0,7.321-.193,17.741,17.741,0,0,0,7.017-2.694,26.387,26.387,0,0,1,3.907-1.906c-.006-.4-.006-.811.005-1.248,0-.266,0-.55.011-.833v-.023c.006-.42.022-.856.038-1.3.011-.3.022-.612.033-.93s.027-.629.043-.953c.006-.2.016-.408.027-.612l.033-.681c.016-.25.027-.505.043-.76.017-.318.033-.635.055-.959.021-.357.043-.714.065-1.077.021-.329.043-.664.065-1,.217-3.312.483-6.7.716-9.551.027-.3.049-.59.071-.879.021-.244.043-.483.059-.715.234-2.808.4-4.872.413-5.462C1779.221,943.973,1772.872,930.922,1772.422,929.47Z" fill="url(#linear-gradient-12)" style="mix-blend-mode: multiply;isolation: isolate"/>
          <path id="Caminho_114334" data-name="Caminho 114334" d="M1678.674,931.173a40.944,40.944,0,0,0,9.061-3.215c6.988-3.435,16.261-9.779,18.155-13.2a9.136,9.136,0,0,0,.381-7.232,32.7,32.7,0,0,1-7.065,6.989C1696.023,916.573,1683.6,927.106,1678.674,931.173Z" fill="url(#linear-gradient-13)" style="mix-blend-mode: multiply;isolation: isolate"/>
          <path id="Caminho_114335" data-name="Caminho 114335" d="M1769.468,908.311c2.465-1.831,12.18,13.043,13.868,15.559s23.477,5.311,22.725,9.764-21.764.7-26.484-2.794C1776.1,928.271,1764.594,911.933,1769.468,908.311Z" fill="#a8655d"/>
          <path id="Caminho_114336" data-name="Caminho 114336" d="M1779.633,927.794c-2.088-2.732-9.053-15.548-10.807-18.795-3.022,4.643,7.464,19.409,10.751,21.841,2.543,1.881,9.814,3.838,16.1,4.548C1789.481,933.093,1781.111,929.727,1779.633,927.794Z" fill="url(#linear-gradient-14)" style="mix-blend-mode: multiply;isolation: isolate"/>
          <path id="Caminho_114337" data-name="Caminho 114337" d="M1815.468,902.505c-2.265-3.055-10.993-6.091-18.3-3.928s-8.2,5-9.589,7.166c-2.855,4.46-1.655,26.216-1.306,31.443.773,11.58-.3,13.631,11.3,13.474,9.854-.134,23.6,2.9,24.142-2.647C1822.481,940.22,1824.192,914.27,1815.468,902.505Z" fill="#f4ac46"/>
          <path id="Caminho_114338" data-name="Caminho 114338" d="M1821.718,948.006c.764-7.807,2.477-33.8-6.263-45.591-1.158-1.562-4-3.117-7.485-3.979a64.5,64.5,0,0,1,1.995,15.483c.34,10.9-3.867,27.646-4.044,37.085C1813.8,951.533,1821.319,952.084,1821.718,948.006Z" fill="url(#linear-gradient-15)" style="mix-blend-mode: multiply;isolation: isolate"/>
          <path id="Caminho_114339" data-name="Caminho 114339" d="M1685.073,919.008c-3.627.335-4.506,15.63,4.693,19.429a8.735,8.735,0,0,0,2.1.558,65.85,65.85,0,0,1,1.315-9.016Z" fill="#ac614e"/>
          <g id="Grupo_6848" data-name="Grupo 6848">
            <path id="Caminho_114340" data-name="Caminho 114340" d="M1799.967,891.873s-1.156-.495-.64-2.126c.336-1.064,2.3-2.2,2.969-1.987s.261.722.287,1.083c.141,1.956,1.817,3.247,1.634,4.723a1.781,1.781,0,0,1-2.6,1.21A16.309,16.309,0,0,1,1799.967,891.873Z" fill="#311e69"/>
            <path id="Caminho_114341" data-name="Caminho 114341" d="M1803.625,893.919l.871,4.97c-.088.69-3.893,2.07-4.813,1.043-.27-.3-.095-.947.289-1.619l2.237-3.638Z" fill="#ac614e"/>
            <path id="Caminho_114342" data-name="Caminho 114342" d="M1801.76,895.406c.744-.026,1.762-.075,1.762-.075a3.329,3.329,0,0,1-1.365,1.957,2.941,2.941,0,0,1-1.858.494Z" fill="url(#linear-gradient-16)" style="mix-blend-mode: multiply;isolation: isolate"/>
            <path id="Caminho_114343" data-name="Caminho 114343" d="M1802.859,892.01l.655,2.813a1.761,1.761,0,0,1-1.353,2.018,4.486,4.486,0,0,1-2.067-.082c-.743-.156-1.072-.94-.995-1.968a9.948,9.948,0,0,1,.832-3.159C1800.563,890.2,1802.3,890.208,1802.859,892.01Z" fill="#ac614e"/>
            <path id="Caminho_114344" data-name="Caminho 114344" d="M1802.757,893.233a2.582,2.582,0,0,0,.25-.468c.133-.312.4-.742.745-.309.5.63-.292,2.249-1.083,2.033C1802.082,894.328,1802.5,893.6,1802.757,893.233Z" fill="#ac614e"/>
            <path id="Caminho_114345" data-name="Caminho 114345" d="M1800.98,894.021a4.362,4.362,0,0,1-1.5-.074.623.623,0,0,0,.294.546A.785.785,0,0,0,1800.98,894.021Z" fill="#fff"/>
            <path id="Caminho_114346" data-name="Caminho 114346" d="M1799.938,895.72c.852-.108,1.391,1.273,2.977.136a2.3,2.3,0,0,0,.585-1.094l.014.061a1.761,1.761,0,0,1-1.353,2.018,4.486,4.486,0,0,1-2.067-.082,1.2,1.2,0,0,1-.9-.9A3.907,3.907,0,0,0,1799.938,895.72Z" fill="#894b46"/>
          </g>
          <g id="Grupo_6849" data-name="Grupo 6849">
            <path id="Caminho_114347" data-name="Caminho 114347" d="M1660.936,982.414c1.676-.538-.326-25.924-.3-28.154.079-7.275,6.19-14.047,6.626-15.348.542-1.617-3.918-13.215-.109-20.047,2.294-4.116,15.454,5.914,17.168,12.145.67,2.434,1.427,5.36,2.2,8.449.8,3.171,6.84,16.231,6.158,24.438-1.7,20.4-9.021,44.227-18.516,58.838-.463.714-3.266-.443-3.3-1-.465-8.576,3.052-26.065,7.691-33.953,1.853-3.151.041-27.539-.629-27.161-2.333,1.313,3.1,38.3-34.564,40.391l-.745-3.451S1650.854,985.644,1660.936,982.414Z" fill="#ac614e"/>
          </g>
          <path id="Caminho_114348" data-name="Caminho 114348" d="M1675.882,973.5a1.039,1.039,0,0,0-1.127-.278c-3.341,1.015-6.695,12.133-11.841,16.208s-19.279,11.4-19.279,11.4.13.053.362.143C1666.97,999.436,1673.6,984.729,1675.882,973.5Z" fill="url(#linear-gradient-17)" style="mix-blend-mode: multiply;isolation: isolate"/>
          <path id="Caminho_114349" data-name="Caminho 114349" d="M1687.174,976.945c-.416,8.557-7.517,20.1-8.52,25.723s-6.055,18.269-4.489,20.067c9.341-14.377,16.582-37.677,18.428-57.851A19.134,19.134,0,0,0,1687.174,976.945Z" fill="url(#linear-gradient-18)" style="mix-blend-mode: multiply;isolation: isolate"/>
          <path id="Caminho_114350" data-name="Caminho 114350" d="M1660.166,952.618c.646-6.137,6.23-13.121,6.479-13.863.542-1.618-3.3-13.058.507-19.89,2.294-4.116,7.16-4.117,13.019-4.116,1.135,0,5.58,2.677,7.295,8.907.67,2.434-1.719,12.714-.944,15.8.245.976,10.981,20.7,4.674,42.448-15.117,2.337-25.786-.146-30.519-2.73C1661.238,974.292,1659.254,961.278,1660.166,952.618Z" fill="#f4ac46"/>
          <path id="Caminho_114351" data-name="Caminho 114351" d="M1674.28,923.16c-.74-.784-1.183-6.29-2.816-7.665a24.425,24.425,0,0,1,6.838-.741c1.422,1.121,4.824,4.014,5.145,6.279C1683.854,923.9,1675.133,924.064,1674.28,923.16Z" fill="#ac614e"/>
          <g id="Grupo_6850" data-name="Grupo 6850">
            <path id="Caminho_114352" data-name="Caminho 114352" d="M1670.849,1020.859c-.479,0-.883.99-1,1.81-.107.734.145,5.162.164,6.083a.168.168,0,0,0,.165.168h.374a.167.167,0,0,0,.16-.13l.335-2.6c.8,1.361,2.22,2.731,3.749,2.731h2.879c.717,0,2.972-.548-.024-2.176a15.342,15.342,0,0,1-3.115-2.473C1673.171,1022.863,1672.065,1020.869,1670.849,1020.859Z" fill="#1e1240"/>
            <path id="Caminho_114353" data-name="Caminho 114353" d="M1674.174,1022.268a16.869,16.869,0,0,0,1.842,3.592c.481.473.382,1.37-1.632.086a17.7,17.7,0,0,1-2.876-2.943c-.758-.845-1.029-1.689-.659-2.144S1673.365,1021.329,1674.174,1022.268Z" fill="#ac614e"/>
          </g>
          <g id="Grupo_6851" data-name="Grupo 6851">
            <path id="Caminho_114354" data-name="Caminho 114354" d="M1642.995,997.14c-.253-.425-1.273-.251-2,.082-.65.3-4.094,2.89-4.829,3.4a.176.176,0,0,0-.048.235l.2.33a.161.161,0,0,0,.19.072l2.283-1.1c-.673,1.435-1.021,3.421-.2,4.772l1.541,2.542c.383.633,2.032,2.331,1.746-1.184a16.6,16.6,0,0,1,.333-4.074C1642.617,1000.262,1643.637,998.219,1642.995,997.14Z" fill="#1e1240"/>
            <path id="Caminho_114355" data-name="Caminho 114355" d="M1643.635,1000.829a16.8,16.8,0,0,0-1.918,3.549c-.126.677-.9,1.07-.943-1.4a18.812,18.812,0,0,1,.84-4.114c.278-1.121.815-1.813,1.381-1.729S1643.961,999.613,1643.635,1000.829Z" fill="#ac614e"/>
          </g>
          <path id="Caminho_114356" data-name="Caminho 114356" d="M1680.025,909.022a2.4,2.4,0,0,0,.083-.49c.026-.316.135-.778.564-.508.623.394.4,2.067-.359,2.127C1679.751,910.2,1679.907,909.423,1680.025,909.022Z" fill="#ac614e"/>
          <path id="Caminho_114357" data-name="Caminho 114357" d="M1675.931,910.086l-.771,4.812c-.124.792,1.443,3.134,2.79,2.323.4-.237.1-1.4-.113-2.28l-.29-4.286Z" fill="#ac614e"/>
          <path id="Caminho_114358" data-name="Caminho 114358" d="M1677.719,913.2a2.811,2.811,0,0,1-1.673-2.284l1.542.349Z" fill="url(#linear-gradient-19)" style="mix-blend-mode: multiply;isolation: isolate"/>
          <path id="Caminho_114359" data-name="Caminho 114359" d="M1676.434,907.2l-.551,1.8a2.838,2.838,0,0,0,1.6,3.518,2.289,2.289,0,0,0,3.061-1.8c.4-1.488-.441-2.963-.712-3.708C1679.219,905.315,1677.213,905.175,1676.434,907.2Z" fill="#ac614e"/>
          <path id="Caminho_114360" data-name="Caminho 114360" d="M1676.221,908.989a2.435,2.435,0,0,1-.047-.495c0-.317-.077-.787-.524-.552-.651.342-.549,2.028.2,2.15C1676.407,910.182,1676.309,909.4,1676.221,908.989Z" fill="#ac614e"/>
          <path id="Caminho_114361" data-name="Caminho 114361" d="M1679.574,909.966a6.584,6.584,0,0,1-1.938-.031,1.405,1.405,0,0,0,1.157.738C1679.678,910.671,1679.574,909.966,1679.574,909.966Z" fill="#e6f2f5"/>
          <path id="Caminho_114362" data-name="Caminho 114362" d="M1670.216,917.174c-1.569-.941-4.219,2.183-5.472,6.069s-3.64,12.212-4.512,16.372c-1.351,6.449-3.928,24.655-.021,26.408s4.627-18.773,6.12-25.044C1667.727,935.121,1674.874,919.97,1670.216,917.174Z" fill="#ac614e"/>
          <path id="Caminho_114363" data-name="Caminho 114363" d="M1670.6,917.461a20.361,20.361,0,0,1-.9,7.005c-1.185,3.085-4.916,10.047-5.585,14.89-.565,4.1-3.684,20.532-3.143,26.72,3.246-1.065,3.967-19.259,5.357-25.1C1667.685,935.3,1674.447,920.876,1670.6,917.461Z" fill="url(#linear-gradient-20)" style="mix-blend-mode: multiply;isolation: isolate"/>
          <path id="Caminho_114364" data-name="Caminho 114364" d="M1660.58,964.434a1.176,1.176,0,0,1,1.224.449,2.368,2.368,0,0,1,.675,1.439,4.192,4.192,0,0,0,.387,2.018c.215.362-.342.607-.631.239s-.475-1.411-.8-1.259.134,3.4-.464,3.358c-1.466-.1-2.407-1.976-2.152-3.344a6.62,6.62,0,0,1,.695-2.214A1.586,1.586,0,0,1,1660.58,964.434Z" fill="#ac614e"/>
          <path id="Caminho_114365" data-name="Caminho 114365" d="M1719.106,965.132s-5.948,5.875-7.535,13.3c-.791,3.7-1.623,7.266-2.26,9.916-3.338,7.9-1.5,29.623-1.332,34.391.029.852.1,1.662.189,2.409a1.924,1.924,0,0,0,1.432-1.581c1-6.119,4.578-28.127,7.058-43.377h0C1717.924,972.408,1718.9,966.386,1719.106,965.132Z" fill="url(#linear-gradient-21)" style="mix-blend-mode: multiply;isolation: isolate"/>
          <path id="Caminho_114366" data-name="Caminho 114366" d="M1804.794,899.582c4.04-5.528,23.349,8.909,27.187,22.638,5.856,20.95-18.362,33.138-23.453,28.321-4.2-3.97,15.045-17.3,13.5-25.064C1820.64,918.53,1800.753,905.111,1804.794,899.582Z" fill="#ac614e"/>
          <path id="Caminho_114367" data-name="Caminho 114367" d="M1831.981,922.22c-1.3-4.665-4.395-9.411-8.066-13.429a59.076,59.076,0,0,1,4.492,13.657c1.771,9.824-1.954,17.341-6.6,20.963a116.55,116.55,0,0,1-11.459,8.027C1817.768,953.073,1837.306,941.268,1831.981,922.22Z" fill="url(#linear-gradient-22)" style="mix-blend-mode: multiply;isolation: isolate"/>
          <path id="Caminho_114368" data-name="Caminho 114368" d="M1809.2,949.776a3.859,3.859,0,0,0-.144-2.579c-.394-.873-1.044-2.087-1.665-2.254-.983-.265-3.641.419-3.4.759s1.762.222,1.762.222a11.735,11.735,0,0,0-2.55,1.584,1.26,1.26,0,0,0,.52,1.911c.549.2,3.35,2.115,4.511,1.757C1808.734,951.019,1809.028,950.41,1809.2,949.776Z" fill="#ac614e"/>
          <g id="Grupo_6852" data-name="Grupo 6852">
            <path id="Caminho_114369" data-name="Caminho 114369" d="M1827.14,912.732c-7.2-9.9-19.251-17.384-22.346-13.15-3.164,4.329,7.415,14.635,13.223,21.744C1820.164,920.4,1825.18,917,1827.14,912.732Z" fill="#f4ac46"/>
          </g>
          <path id="Caminho_114370" data-name="Caminho 114370" d="M1722.887,948.544c10.44-1.353,10.5-4.391,11.992-14.8.912-6.386-1.527-25.823-4.619-29.464-1.293-1.523-5.167-3.918-10.566-5.2,1.447,2.525,4.4,8.854,5.276,19.681.876,10.781-1.6,23.861-2.934,29.9Q1722.468,948.6,1722.887,948.544Z" fill="url(#linear-gradient-23)" style="mix-blend-mode: multiply;isolation: isolate"/>
        </g>
      </g>
      <g id="Grupo_6855" data-name="Grupo 6855">
        <path id="Caminho_114371" data-name="Caminho 114371" d="M1847.662,982.666s-14.437,9.433-20.511,19.323-3.609,30.685,13.909,31.973,22.888-8.281,23.2-16.975-12.853-32.893-12.853-32.893Z" fill="#2c6020"/>
        <path id="Caminho_114372" data-name="Caminho 114372" d="M1859.5,1000.795a12.042,12.042,0,0,1,.119,1.99c-.308,8.7-6.279,17.183-23.8,15.9-5.511-.4-8.93-1.661-11.665-4.981-.009,9.394,4.932,19.383,16.9,20.263,17.518,1.288,22.888-8.281,23.2-16.975C1864.385,1013.34,1862.145,1006.967,1859.5,1000.795Z" fill="url(#linear-gradient-24)" style="mix-blend-mode: multiply;isolation: isolate"/>
        <path id="Caminho_114373" data-name="Caminho 114373" d="M1847.7,983.536s-.906-2.959.283-3.61,3.223.177,4.415-.474,2.531-.769,2.032.71-2.086,4.026-3.672,4.2S1847.814,983.953,1847.7,983.536Z" fill="#2c6020"/>
      </g>
      <g id="Grupo_6917" data-name="Grupo 6917">
        <g id="Grupo_6856" data-name="Grupo 6856">
          <path id="Caminho_114374" data-name="Caminho 114374" d="M1623.507,1030.265l32.644-5.315a4.565,4.565,0,0,0,3.738-4.667l-1.48-68.8-41.347,6.8,2.692,67.589C1619.814,1028.661,1620.867,1030.695,1623.507,1030.265Z" fill="#95c23d"/>
        </g>
        <g id="Grupo_6867" data-name="Grupo 6867">
          <g id="Grupo_6866" data-name="Grupo 6866">
            <g id="Grupo_6865" data-name="Grupo 6865">
              <g id="Grupo_6864" data-name="Grupo 6864">
                <g id="Grupo_6863" data-name="Grupo 6863">
                  <g id="Grupo_6857" data-name="Grupo 6857">
                    <path id="Caminho_114375" data-name="Caminho 114375" d="M1635.561,953.886l3.954,18.853c.162.539-1.143,1.463-4.112,2.442s-4.537,1.03-4.7.491l-7.126-17.852Z" fill="#a8655d"/>
                  </g>
                  <g id="Grupo_6858" data-name="Grupo 6858">
                    <path id="Caminho_114376" data-name="Caminho 114376" d="M1637.9,965.024a14.113,14.113,0,0,1-4.754,2.638,13.311,13.311,0,0,1-5.277.9l-2.143-5.369a11.481,11.481,0,0,0,5.9-.8,12.792,12.792,0,0,0,5.1-3Z" fill="#fff"/>
                  </g>
                  <g id="Grupo_6860" data-name="Grupo 6860">
                    <g id="Grupo_6859" data-name="Grupo 6859">
                      <path id="Caminho_114377" data-name="Caminho 114377" d="M1627.516,956.527a2.293,2.293,0,0,1,.108.709c-.025,2.019-1.125,1.763.1,2.784s2.046.09,2.426,2.181a18.115,18.115,0,0,1,.166,3.641,3.157,3.157,0,0,0,1.085,2.519,17.167,17.167,0,0,1,1.911,1.888c.869,1.033,1.039,3.54,1.339,5.169-2.482.746-3.8.745-3.948.254l-7.126-17.852Z" fill="#a8655d"/>
                    </g>
                  </g>
                  <g id="Grupo_6861" data-name="Grupo 6861">
                    <path id="Caminho_114378" data-name="Caminho 114378" d="M1635.44,952.318l.6,1.891c.131.433-2.588,1.716-6.073,2.865s-6.417,1.73-6.547,1.3l-.6-1.89Z" fill="#ffcaca"/>
                  </g>
                  <g id="Grupo_6862" data-name="Grupo 6862">
                    <path id="Caminho_114379" data-name="Caminho 114379" d="M1622.82,956.48c.131.433,3.062-.147,6.547-1.3s6.2-2.432,6.073-2.866-3.062.147-6.547,1.3S1622.689,956.046,1622.82,956.48Z" fill="#f7f7f7"/>
                  </g>
                </g>
              </g>
            </g>
          </g>
        </g>
        <g id="Grupo_6868" data-name="Grupo 6868">
          <path id="Caminho_114380" data-name="Caminho 114380" d="M1673.108,1029.09l-9.284-4.31a4.547,4.547,0,0,1-3.935-4.488l-1.479-68.8,20.33,7.329-.73,65.575A4.5,4.5,0,0,1,1673.108,1029.09Z" fill="#2c6020"/>
        </g>
        <g id="Grupo_6872" data-name="Grupo 6872">
          <g id="Grupo_6869" data-name="Grupo 6869">
            <path id="Caminho_114381" data-name="Caminho 114381" d="M1651.348,963.054a6.264,6.264,0,0,1-1.423-2.541c-.527-2.088.433-2.389.657-4.077s-.372-4.936-1.706-5.819-2.172-.413-2.59-1.53a3.524,3.524,0,0,1-.253-1.371.317.317,0,0,0-.344-.34l-.179.022-1.786.217-.179.021a.324.324,0,0,0-.26.414,3.544,3.544,0,0,1,.054,1.4c-.162,1.188-1.08.93-2.184,2.11s-.972,4.484-.384,6.073,1.589,1.652,1.535,3.811a6.4,6.4,0,0,1-.827,2.814,5.217,5.217,0,0,0-.579,3.058l.8,4.81a2.1,2.1,0,0,0,2.3,1.9l7.039-.855a2.15,2.15,0,0,0,1.821-2.405l-.277-4.872A5.141,5.141,0,0,0,1651.348,963.054Z" fill="#ff8f8f"/>
          </g>
          <g id="Grupo_6871" data-name="Grupo 6871">
            <g id="Grupo_6870" data-name="Grupo 6870">
              <path id="Caminho_114382" data-name="Caminho 114382" d="M1646.148,962.572c.658-1.481-.765-2.282-2.4-5.269s.659-6.156,1.3-7.232a4.587,4.587,0,0,0,.022-2.62l-1.35.164-.179.021a.324.324,0,0,0-.26.414,3.544,3.544,0,0,1,.054,1.4c-.162,1.188-1.08.93-2.184,2.11s-.972,4.484-.384,6.073,1.589,1.652,1.535,3.811a6.4,6.4,0,0,1-.827,2.814,5.217,5.217,0,0,0-.579,3.058l.8,4.81a2.1,2.1,0,0,0,2.3,1.9l3.691-.448a11.883,11.883,0,0,1-2.742-5.093C1644.07,964.85,1645.49,964.052,1646.148,962.572Z" fill="#ff8f8f"/>
            </g>
          </g>
        </g>
        <g id="Grupo_6875" data-name="Grupo 6875">
          <g id="Grupo_6873" data-name="Grupo 6873">
            <path id="Caminho_114383" data-name="Caminho 114383" d="M1634.194,960.742a5.26,5.26,0,0,0-.37-4.661,5.774,5.774,0,0,1-.664-1.317l1.073-.592,1.753-.965a5.792,5.792,0,0,1,.664,1.318,4.928,4.928,0,0,0,3.469,2.954c1.657.5,3.848,5.389,5.056,8.4a2.807,2.807,0,0,1-1.2,3.5l-1.629.9-.949.523a2.567,2.567,0,0,1-3.438-.943C1636.272,967.106,1633.654,962.454,1634.194,960.742Z" fill="#afccd3"/>
          </g>
          <g id="Grupo_6874" data-name="Grupo 6874">
            <path id="Caminho_114384" data-name="Caminho 114384" d="M1641.4,970.79a2.567,2.567,0,0,1-3.438-.943c-1.688-2.741-4.306-7.393-3.766-9.1a5.26,5.26,0,0,0-.37-4.661,5.774,5.774,0,0,1-.664-1.317l1.073-.592.256-.14a10.479,10.479,0,0,1,1.659,4.1c.2,2.2,2.842,3.774,3.922,6.707a50.825,50.825,0,0,0,2.493,5.307l-.216.119Z" fill="#afccd3"/>
          </g>
        </g>
        <g id="Grupo_6903" data-name="Grupo 6903">
          <g id="Grupo_6879" data-name="Grupo 6879">
            <g id="Grupo_6876" data-name="Grupo 6876">
              <path id="Caminho_114385" data-name="Caminho 114385" d="M1649.566,953.558l.7-.337a1.646,1.646,0,0,0,.878-1.119l.311-1.347,2.745.691,2.745.692-.31,1.347a1.718,1.718,0,0,0,.294,1.414l.474.632a2.8,2.8,0,0,1,.478,2.3l-2.847,12.349a2.177,2.177,0,0,1-1.018,1.4,5.978,5.978,0,0,1-4.574.5,5.9,5.9,0,0,1-3.951-2.574,2.266,2.266,0,0,1-.234-1.63l2.883-12.5A2.681,2.681,0,0,1,1649.566,953.558Z" fill="#afccd3"/>
            </g>
            <g id="Grupo_6877" data-name="Grupo 6877">
              <path id="Caminho_114386" data-name="Caminho 114386" d="M1645.254,967.882l2.883-12.5a2.681,2.681,0,0,1,1.429-1.82l.7-.337a1.646,1.646,0,0,0,.878-1.119l.311-1.347,2.316.583a5.635,5.635,0,0,1-.835,2.136,8.8,8.8,0,0,0-2.247,3.649c-.4,1.516,1.248,5.358-.45,7.035s-.032,3.763-.848,6.2a9.75,9.75,0,0,1-.652,1.523,5.52,5.52,0,0,1-3.248-2.37A2.266,2.266,0,0,1,1645.254,967.882Z" fill="#afccd3"/>
            </g>
            <g id="Grupo_6878" data-name="Grupo 6878">
              <path id="Caminho_114387" data-name="Caminho 114387" d="M1651.452,950.755c-.068.294,1.106.842,2.622,1.223s2.8.453,2.868.16-1.106-.842-2.622-1.224S1651.52,950.461,1651.452,950.755Z" fill="#f7f7f7"/>
            </g>
          </g>
          <g id="Grupo_6883" data-name="Grupo 6883">
            <g id="Grupo_6881" data-name="Grupo 6881">
              <g id="Grupo_6880" data-name="Grupo 6880">
                <path id="Caminho_114388" data-name="Caminho 114388" d="M1659.513,976.172l-7.818,5.065-11.855-19.99,7.818-5.065Z" fill="#c4e8f3"/>
                <path id="Caminho_114389" data-name="Caminho 114389" d="M1643.846,952.8l-5.212,3.377,1.207,5.075,7.818-5.065Z" fill="#0f4c71"/>
              </g>
              <path id="Caminho_114390" data-name="Caminho 114390" d="M1651.713,981.225l-1.394-2.308-7.556-12.741c.3-.615.427-1.209.683-1.372.36-.23,1.066.152,1.56-.168.614-.4.549-1.54,1.056-1.868a1.293,1.293,0,0,1,.914-.076,2.021,2.021,0,0,0,1.46-.052c.463-.3.752-2.025,1.482-2.5a.732.732,0,0,1,.066-.037l9.529,16.066Z" fill="#f5f5f5"/>
              <text id="LEITE" transform="translate(1646.959 970.469) rotate(-31.29)" fill="#0f4c71" font-size="4" font-family="Active-Regular, Active"><tspan x="0" y="0">LEITE</tspan></text>
            </g>
            <g id="Grupo_6882" data-name="Grupo 6882">
              <ellipse id="Elipse_1181" data-name="Elipse 1181" cx="1.838" cy="1.151" rx="1.838" ry="1.151" transform="matrix(0.825, -0.565, 0.565, 0.825, 1640.483, 956.951)" fill="#c4e8f3"/>
              <path id="Caminho_114391" data-name="Caminho 114391" d="M1644.192,955.862l-.457-.771-3.084,2,.457.771Z" fill="#c4e8f3"/>
              <ellipse id="Elipse_1182" data-name="Elipse 1182" cx="1.838" cy="1.151" rx="1.838" ry="1.151" transform="matrix(0.825, -0.565, 0.565, 0.825, 1640.026, 956.18)" fill="#4488a0"/>
            </g>
          </g>
          <g id="Grupo_6887" data-name="Grupo 6887">
            <g id="Grupo_6885" data-name="Grupo 6885">
              <g id="Grupo_6884" data-name="Grupo 6884">
                <path id="Caminho_114392" data-name="Caminho 114392" d="M1665.12,973.346l-9.032,1.815-4.248-23.1,9.032-1.815Z" fill="#c4e8f3"/>
                <path id="Caminho_114393" data-name="Caminho 114393" d="M1658.468,945.665l-6.022,1.21-.606,5.191,9.032-1.815Z" fill="#0f4c71"/>
              </g>
              <path id="Caminho_114394" data-name="Caminho 114394" d="M1656.109,975.157l-.514-2.676-2.708-14.721c.493-.461.812-.97,1.106-1.026.415-.081.945.539,1.516.425.708-.143,1.038-1.234,1.623-1.351a1.3,1.3,0,0,1,.881.27,2.044,2.044,0,0,0,1.381.495c.535-.108,1.394-1.61,2.237-1.78.024-.005.051-.007.075-.01l3.414,18.563Z" fill="#f5f5f5"/>
              <text id="LEITE-2" data-name="LEITE" transform="translate(1655.334 963.344) rotate(-10.456)" fill="#0f4c71" font-size="4" font-family="Active-Regular, Active"><tspan x="0" y="0">LEITE</tspan></text>
            </g>
            <g id="Grupo_6886" data-name="Grupo 6886">
              <ellipse id="Elipse_1183" data-name="Elipse 1183" cx="1.818" cy="1.164" rx="1.818" ry="1.164" transform="translate(1653.942 948.257) rotate(-12.015)" fill="#c4e8f3"/>
              <path id="Caminho_114395" data-name="Caminho 114395" d="M1657.744,948.659l-.164-.89-3.563.716.164.89Z" fill="#c4e8f3"/>
              <ellipse id="Elipse_1184" data-name="Elipse 1184" cx="1.818" cy="1.164" rx="1.818" ry="1.164" transform="translate(1653.778 947.367) rotate(-12.015)" fill="#4488a0"/>
            </g>
          </g>
          <g id="Grupo_6898" data-name="Grupo 6898">
            <g id="Grupo_6897" data-name="Grupo 6897">
              <g id="Grupo_6889" data-name="Grupo 6889">
                <g id="Grupo_6888" data-name="Grupo 6888">
                  <path id="Caminho_114396" data-name="Caminho 114396" d="M1667.92,952.55a.423.423,0,0,1-.16-.083.463.463,0,0,1-.071-.631l5.479-7.271a.406.406,0,0,1,.47-.149l4.867,1.639a.453.453,0,0,1,.277.565.428.428,0,0,1-.541.29l-4.582-1.544-5.3,7.026A.421.421,0,0,1,1667.92,952.55Z" fill="#ebf7f7"/>
                </g>
              </g>
              <g id="Grupo_6896" data-name="Grupo 6896">
                <g id="Grupo_6895" data-name="Grupo 6895">
                  <g id="Grupo_6894" data-name="Grupo 6894">
                    <g id="Grupo_6890" data-name="Grupo 6890">
                      <path id="Caminho_114397" data-name="Caminho 114397" d="M1662.454,950.544l-3.139,19.02c-.139.546,1.2,1.408,4.212,2.246s4.578.815,4.717.269l6.351-18.167Z" fill="#a8655d"/>
                    </g>
                    <g id="Grupo_6891" data-name="Grupo 6891">
                      <path id="Caminho_114398" data-name="Caminho 114398" d="M1660.6,961.78a14.037,14.037,0,0,0,4.862,2.412,13.269,13.269,0,0,0,5.31.655l1.91-5.463a11.464,11.464,0,0,1-5.926-.518,12.725,12.725,0,0,1-5.221-2.755Z" fill="#fff"/>
                    </g>
                    <g id="Grupo_6892" data-name="Grupo 6892">
                      <path id="Caminho_114399" data-name="Caminho 114399" d="M1662.507,948.972l-.512,1.916c-.112.44,2.659,1.594,6.19,2.578s6.484,1.426,6.6.987l.513-1.917Z" fill="#ffcaca"/>
                    </g>
                    <g id="Grupo_6893" data-name="Grupo 6893">
                      <path id="Caminho_114400" data-name="Caminho 114400" d="M1675.294,952.537c-.112.439-3.065,0-6.6-.987s-6.3-2.139-6.191-2.578,3.066,0,6.6.987S1675.406,952.1,1675.294,952.537Z" fill="#f7f7f7"/>
                    </g>
                  </g>
                </g>
              </g>
            </g>
          </g>
          <g id="Grupo_6902" data-name="Grupo 6902">
            <g id="Grupo_6900" data-name="Grupo 6900">
              <g id="Grupo_6899" data-name="Grupo 6899">
                <path id="Caminho_114401" data-name="Caminho 114401" d="M1676.535,984.308l-9.158.891-2.084-23.417,9.158-.891Z" fill="#c4e8f3"/>
                <path id="Caminho_114402" data-name="Caminho 114402" d="M1672.483,956.083l-6.106.594-1.085,5.105,9.158-.891Z" fill="#0f4c71"/>
              </g>
              <path id="Caminho_114403" data-name="Caminho 114403" d="M1667.4,985.2l-.264-2.716-1.328-14.926c.533-.409.9-.883,1.2-.909.421-.039.89.632,1.469.576.718-.07,1.148-1.122,1.741-1.18a1.313,1.313,0,0,1,.851.358,2.065,2.065,0,0,0,1.329.633c.543-.052,1.537-1.461,2.392-1.544a.473.473,0,0,1,.075,0l1.676,18.821Z" fill="#f5f5f5"/>
              <text id="LEITE-3" data-name="LEITE" transform="translate(1667.712 973.353) rotate(-5.09)" fill="#0f4c71" font-size="4" font-family="Active-Regular, Active"><tspan x="0" y="0">LEITE</tspan></text>
            </g>
            <g id="Grupo_6901" data-name="Grupo 6901">
              <ellipse id="Elipse_1185" data-name="Elipse 1185" cx="1.815" cy="1.166" rx="1.815" ry="1.166" transform="matrix(0.995, -0.102, 0.102, 0.995, 1667.753, 958.192)" fill="#c4e8f3"/>
              <path id="Caminho_114404" data-name="Caminho 114404" d="M1671.484,958.989l-.08-.9-3.613.351.08.9Z" fill="#c4e8f3"/>
              <ellipse id="Elipse_1186" data-name="Elipse 1186" cx="1.815" cy="1.166" rx="1.815" ry="1.166" transform="matrix(0.995, -0.102, 0.102, 0.995, 1667.672, 957.289)" fill="#4488a0"/>
            </g>
          </g>
        </g>
        <g id="Grupo_6904" data-name="Grupo 6904">
          <path id="Caminho_114405" data-name="Caminho 114405" d="M1641.713,1037.654l-19.237-6.084a4.545,4.545,0,0,1-3.935-4.487l-1.479-68.8,20.225,7.288,9.327,67.39A4.5,4.5,0,0,1,1641.713,1037.654Z" fill="#2c6020"/>
        </g>
        <g id="Grupo_6916" data-name="Grupo 6916">
          <g id="Grupo_6905" data-name="Grupo 6905">
            <path id="Caminho_114406" data-name="Caminho 114406" d="M1643.838,1037.6l32.644-5.315a4.567,4.567,0,0,0,3.738-4.668l-1.48-68.8-41.453,6.749,1.453,67.575A4.482,4.482,0,0,0,1643.838,1037.6Z" fill="#95c23d"/>
          </g>
          <g id="Grupo_6915" data-name="Grupo 6915">
            <g id="Grupo_6908" data-name="Grupo 6908">
              <g id="Grupo_6906" data-name="Grupo 6906">
                <path id="Caminho_114407" data-name="Caminho 114407" d="M1660.928,982.062l-3.078,5.025,2.186,1.332-6.014-.028-1.309-4.272,1.5.978,1.623-2.628a1.871,1.871,0,0,1,1.879-.9Z" fill="#fff"/>
              </g>
              <g id="Grupo_6907" data-name="Grupo 6907">
                <path id="Caminho_114408" data-name="Caminho 114408" d="M1661.972,982.776l4.247,3.976-3.008,2.921-4.135-3.962,1.945-3.2C1661.288,982.074,1661.6,982.429,1661.972,982.776Z" fill="#fff"/>
              </g>
            </g>
            <g id="Grupo_6911" data-name="Grupo 6911">
              <g id="Grupo_6909" data-name="Grupo 6909">
                <path id="Caminho_114409" data-name="Caminho 114409" d="M1648.41,995.335l5.646.878.268-2.63,2.438,5.746-3.193,3,.239-1.833-2.959-.471a1.931,1.931,0,0,1-1.555-1.423Z" fill="#fff"/>
              </g>
              <g id="Grupo_6910" data-name="Grupo 6910">
                <path id="Caminho_114410" data-name="Caminho 114410" d="M1648.606,994.048l1.732-5.678,3.781,1.672-1.766,5.565-3.588-.545C1648.273,994.988,1648.455,994.543,1648.606,994.048Z" fill="#fff"/>
              </g>
            </g>
            <g id="Grupo_6914" data-name="Grupo 6914">
              <g id="Grupo_6912" data-name="Grupo 6912">
                <path id="Caminho_114411" data-name="Caminho 114411" d="M1665.846,1000.116l-1.244-5.823-2.444.682,4.255-4.441,3.823,2.038-1.722.426.641,3.055a2.033,2.033,0,0,1-.712,2.028Z" fill="#fff"/>
              </g>
              <g id="Grupo_6913" data-name="Grupo 6913">
                <path id="Caminho_114412" data-name="Caminho 114412" d="M1664.626,1000.387l-5.692.349.135-4.289,5.6-.276.8,3.7C1665.585,1000.374,1665.123,1000.356,1664.626,1000.387Z" fill="#fff"/>
              </g>
            </g>
          </g>
        </g>
      </g>
    </g>
  </g>
</svg>
